<mxfile host="app.diagrams.net" agent="Mozilla/5.0 (Windows NT 10.0; Win64; x64) AppleWebKit/537.36 (KHTML, like Gecko) Chrome/135.0.0.0 Safari/537.36 OPR/120.0.0.0 (Edition ms_store)" version="28.0.7">
  <diagram name="Page-1" id="BOlsWdtjcHm8T2ig0Gd5">
    <mxGraphModel dx="-2483" dy="1873" grid="1" gridSize="10" guides="1" tooltips="1" connect="1" arrows="1" fold="1" page="1" pageScale="1" pageWidth="850" pageHeight="1100" math="0" shadow="0">
      <root>
        <mxCell id="0" />
        <mxCell id="1" parent="0" />
        <mxCell id="DptJ9fzBije2jsMREySw-75" value="" style="curved=1;startArrow=none;endArrow=block;exitX=0.5;exitY=1;entryX=1;entryY=0;rounded=0;fillColor=#60a917;strokeColor=#2D7600;exitDx=0;exitDy=0;" edge="1" parent="1" target="DptJ9fzBije2jsMREySw-8">
          <mxGeometry relative="1" as="geometry">
            <Array as="points">
              <mxPoint x="6010" y="970" />
              <mxPoint x="3429" y="739" />
            </Array>
            <mxPoint x="5980.500000000002" y="702" as="sourcePoint" />
            <mxPoint x="3341" y="886" as="targetPoint" />
          </mxGeometry>
        </mxCell>
        <mxCell id="DptJ9fzBije2jsMREySw-76" value="Baby Reindeer" style="whiteSpace=wrap;strokeWidth=2;fillColor=#6a00ff;fontColor=#ffffff;strokeColor=#3700CC;" vertex="1" parent="1">
          <mxGeometry x="10100" y="720" width="162" height="54" as="geometry" />
        </mxCell>
        <mxCell id="DptJ9fzBije2jsMREySw-77" value="Basado en hechos reales" style="whiteSpace=wrap;strokeWidth=2;fillColor=#e51400;fontColor=#ffffff;strokeColor=#B20000;" vertex="1" parent="1">
          <mxGeometry x="6593" y="1156" width="234" height="54" as="geometry" />
        </mxCell>
        <mxCell id="DptJ9fzBije2jsMREySw-78" value="Autobiografía de Richard Gadd" style="whiteSpace=wrap;strokeWidth=2;fillColor=#e51400;fontColor=#ffffff;strokeColor=#B20000;" vertex="1" parent="1">
          <mxGeometry x="6000" y="1440" width="260" height="78" as="geometry" />
        </mxCell>
        <mxCell id="DptJ9fzBije2jsMREySw-79" value="Terapia creativa como proceso" style="whiteSpace=wrap;strokeWidth=2;fillColor=#e51400;fontColor=#ffffff;strokeColor=#B20000;" vertex="1" parent="1">
          <mxGeometry x="6280" y="1350" width="260" height="78" as="geometry" />
        </mxCell>
        <mxCell id="DptJ9fzBije2jsMREySw-80" value="Archivo real de acoso: correos y tweets" style="whiteSpace=wrap;strokeWidth=2;fillColor=#e51400;fontColor=#ffffff;strokeColor=#B20000;" vertex="1" parent="1">
          <mxGeometry x="6580" y="1290" width="260" height="78" as="geometry" />
        </mxCell>
        <mxCell id="DptJ9fzBije2jsMREySw-81" value="Violación por figura de poder" style="whiteSpace=wrap;strokeWidth=2;fillColor=#e51400;fontColor=#ffffff;strokeColor=#B20000;" vertex="1" parent="1">
          <mxGeometry x="6840" y="1400" width="260" height="78" as="geometry" />
        </mxCell>
        <mxCell id="DptJ9fzBije2jsMREySw-82" value="Proceso judicial real" style="whiteSpace=wrap;strokeWidth=2;fillColor=#e51400;fontColor=#ffffff;strokeColor=#B20000;" vertex="1" parent="1">
          <mxGeometry x="7170" y="1450" width="206" height="54" as="geometry" />
        </mxCell>
        <mxCell id="DptJ9fzBije2jsMREySw-83" value="Salud mental y trauma" style="whiteSpace=wrap;strokeWidth=2;fillColor=#60a917;strokeColor=#2D7600;fontColor=#ffffff;" vertex="1" parent="1">
          <mxGeometry x="8010" y="1368" width="222" height="54" as="geometry" />
        </mxCell>
        <mxCell id="DptJ9fzBije2jsMREySw-84" value="Vergüenza y culpa post-abuso" style="whiteSpace=wrap;strokeWidth=2;fillColor=#e51400;fontColor=#ffffff;strokeColor=#B20000;" vertex="1" parent="1">
          <mxGeometry x="6870" y="1840" width="260" height="78" as="geometry" />
        </mxCell>
        <mxCell id="DptJ9fzBije2jsMREySw-85" value="Dificultad de buscar ayuda" style="whiteSpace=wrap;strokeWidth=2;fillColor=#008a00;strokeColor=#005700;fontColor=#ffffff;" vertex="1" parent="1">
          <mxGeometry x="7550" y="1700" width="251" height="54" as="geometry" />
        </mxCell>
        <mxCell id="DptJ9fzBije2jsMREySw-86" value="Narrativa terapéutica" style="whiteSpace=wrap;strokeWidth=2;fillColor=#60a917;strokeColor=#2D7600;fontColor=#ffffff;" vertex="1" parent="1">
          <mxGeometry x="8031" y="1604" width="215" height="54" as="geometry" />
        </mxCell>
        <mxCell id="DptJ9fzBije2jsMREySw-87" value="Crisis de identidad tras el trauma" style="whiteSpace=wrap;strokeWidth=2;fillColor=#60a917;strokeColor=#2D7600;fontColor=#ffffff;" vertex="1" parent="1">
          <mxGeometry x="8350" y="1580" width="260" height="78" as="geometry" />
        </mxCell>
        <mxCell id="DptJ9fzBije2jsMREySw-88" value="Exploración del dolor masculino y femenino" style="whiteSpace=wrap;strokeWidth=2;fillColor=#60a917;strokeColor=#2D7600;fontColor=#ffffff;" vertex="1" parent="1">
          <mxGeometry x="8600" y="1820" width="260" height="78" as="geometry" />
        </mxCell>
        <mxCell id="DptJ9fzBije2jsMREySw-89" value="Cultura digital y redes sociales" style="whiteSpace=wrap;strokeWidth=2;fillColor=#a0522d;fontColor=#ffffff;strokeColor=#6D1F00;" vertex="1" parent="1">
          <mxGeometry x="10250" y="970" width="260" height="78" as="geometry" />
        </mxCell>
        <mxCell id="DptJ9fzBije2jsMREySw-90" value="Memes y viralización" style="whiteSpace=wrap;strokeWidth=2;fillColor=#0050ef;strokeColor=#001DBC;fontColor=#ffffff;" vertex="1" parent="1">
          <mxGeometry x="7766" y="1284" width="208" height="54" as="geometry" />
        </mxCell>
        <mxCell id="DptJ9fzBije2jsMREySw-91" value="Debates sobre acoso y género" style="whiteSpace=wrap;strokeWidth=2;fillColor=#a0522d;fontColor=#ffffff;strokeColor=#6D1F00;" vertex="1" parent="1">
          <mxGeometry x="10343" y="1272" width="260" height="78" as="geometry" />
        </mxCell>
        <mxCell id="DptJ9fzBije2jsMREySw-92" value="Influencers y terapeutas opinando" style="whiteSpace=wrap;strokeWidth=2;fillColor=#a0522d;fontColor=#ffffff;strokeColor=#6D1F00;" vertex="1" parent="1">
          <mxGeometry x="11310" y="1540" width="260" height="78" as="geometry" />
        </mxCell>
        <mxCell id="DptJ9fzBije2jsMREySw-93" value="Desinformación sobre los personajes reales" style="whiteSpace=wrap;strokeWidth=2;fillColor=#0050ef;strokeColor=#001DBC;fontColor=#ffffff;" vertex="1" parent="1">
          <mxGeometry x="8930" y="1970" width="260" height="78" as="geometry" />
        </mxCell>
        <mxCell id="DptJ9fzBije2jsMREySw-94" value="Efecto Martha en internet" style="whiteSpace=wrap;strokeWidth=2;fillColor=#0050ef;strokeColor=#001DBC;fontColor=#ffffff;" vertex="1" parent="1">
          <mxGeometry x="9230" y="1870" width="246" height="54" as="geometry" />
        </mxCell>
        <mxCell id="DptJ9fzBije2jsMREySw-95" value="Innovación narrativa" style="whiteSpace=wrap;strokeWidth=2;fillColor=#0050ef;fontColor=#ffffff;strokeColor=#001DBC;" vertex="1" parent="1">
          <mxGeometry x="9215" y="1080" width="207" height="54" as="geometry" />
        </mxCell>
        <mxCell id="DptJ9fzBije2jsMREySw-96" value="Estructura no lineal" style="whiteSpace=wrap;strokeWidth=2;fillColor=#0050ef;strokeColor=#001DBC;fontColor=#ffffff;" vertex="1" parent="1">
          <mxGeometry x="8930" y="1302" width="201" height="54" as="geometry" />
        </mxCell>
        <mxCell id="DptJ9fzBije2jsMREySw-97" value="Protagonista moralmente ambiguo" style="whiteSpace=wrap;strokeWidth=2;fillColor=#0050ef;strokeColor=#001DBC;fontColor=#ffffff;" vertex="1" parent="1">
          <mxGeometry x="8380" y="1260" width="260" height="78" as="geometry" />
        </mxCell>
        <mxCell id="DptJ9fzBije2jsMREySw-98" value="Villanos humanos" style="whiteSpace=wrap;strokeWidth=2;fillColor=#0050ef;strokeColor=#001DBC;fontColor=#ffffff;" vertex="1" parent="1">
          <mxGeometry x="9782" y="1284" width="183" height="54" as="geometry" />
        </mxCell>
        <mxCell id="DptJ9fzBije2jsMREySw-99" value="Metáforas visuales (el reno)" style="whiteSpace=wrap;strokeWidth=2;fillColor=#0050ef;fontColor=#ffffff;strokeColor=#001DBC;" vertex="1" parent="1">
          <mxGeometry x="10000" y="1428" width="258" height="54" as="geometry" />
        </mxCell>
        <mxCell id="DptJ9fzBije2jsMREySw-100" value="Final abierto y sin redención clara" style="whiteSpace=wrap;strokeWidth=2;fillColor=#0050ef;strokeColor=#001DBC;fontColor=#ffffff;" vertex="1" parent="1">
          <mxGeometry x="7456" y="1272" width="260" height="78" as="geometry" />
        </mxCell>
        <mxCell id="DptJ9fzBije2jsMREySw-101" value="Impacto en el público" style="whiteSpace=wrap;strokeWidth=2;fillColor=#a0522d;fontColor=#ffffff;strokeColor=#6D1F00;" vertex="1" parent="1">
          <mxGeometry x="11900" y="1112" width="216" height="54" as="geometry" />
        </mxCell>
        <mxCell id="DptJ9fzBije2jsMREySw-102" value="Espectadores compartiendo sus historias" style="whiteSpace=wrap;strokeWidth=2;fillColor=#6a00ff;fontColor=#ffffff;strokeColor=#3700CC;" vertex="1" parent="1">
          <mxGeometry x="10957" y="1918" width="260" height="78" as="geometry" />
        </mxCell>
        <mxCell id="DptJ9fzBije2jsMREySw-103" value="Hombres y mujeres diciendo: me vi ahí" style="whiteSpace=wrap;strokeWidth=2;fillColor=#a0522d;fontColor=#ffffff;strokeColor=#6D1F00;" vertex="1" parent="1">
          <mxGeometry x="12220" y="1330" width="260" height="78" as="geometry" />
        </mxCell>
        <mxCell id="DptJ9fzBije2jsMREySw-104" value="Visibilidad del abuso a hombres" style="whiteSpace=wrap;strokeWidth=2;fillColor=#a0522d;fontColor=#ffffff;strokeColor=#6D1F00;" vertex="1" parent="1">
          <mxGeometry x="12560" y="1260" width="260" height="78" as="geometry" />
        </mxCell>
        <mxCell id="DptJ9fzBije2jsMREySw-105" value="Conversación sobre salud mental masculina" style="whiteSpace=wrap;strokeWidth=2;fillColor=#a0522d;fontColor=#ffffff;strokeColor=#6D1F00;" vertex="1" parent="1">
          <mxGeometry x="10720" y="1338" width="260" height="78" as="geometry" />
        </mxCell>
        <mxCell id="DptJ9fzBije2jsMREySw-106" value="Redefinición de víctima" style="whiteSpace=wrap;strokeWidth=2;fillColor=#a0522d;fontColor=#ffffff;strokeColor=#6D1F00;" vertex="1" parent="1">
          <mxGeometry x="10950" y="1410" width="229" height="54" as="geometry" />
        </mxCell>
        <mxCell id="DptJ9fzBije2jsMREySw-107" value="Datos y logros" style="whiteSpace=wrap;strokeWidth=2;fillColor=#647687;fontColor=#ffffff;strokeColor=#314354;" vertex="1" parent="1">
          <mxGeometry x="13299" y="1284" width="160" height="54" as="geometry" />
        </mxCell>
        <mxCell id="DptJ9fzBije2jsMREySw-108" value="Top 1 en más de 30 países" style="whiteSpace=wrap;strokeWidth=2;fillColor=#647687;fontColor=#ffffff;strokeColor=#314354;" vertex="1" parent="1">
          <mxGeometry x="12850" y="1710" width="246" height="54" as="geometry" />
        </mxCell>
        <mxCell id="DptJ9fzBije2jsMREySw-109" value="53 millones de vistas en 6 semanas" style="whiteSpace=wrap;strokeWidth=2;fillColor=#647687;fontColor=#ffffff;strokeColor=#314354;" vertex="1" parent="1">
          <mxGeometry x="13039" y="1450" width="260" height="78" as="geometry" />
        </mxCell>
        <mxCell id="DptJ9fzBije2jsMREySw-110" value="Incremento en búsquedas sobre acoso" style="whiteSpace=wrap;strokeWidth=2;fillColor=#647687;fontColor=#ffffff;strokeColor=#314354;" vertex="1" parent="1">
          <mxGeometry x="12550" y="1622" width="260" height="78" as="geometry" />
        </mxCell>
        <mxCell id="DptJ9fzBije2jsMREySw-111" value="Disparador de políticas institucionales" style="whiteSpace=wrap;strokeWidth=2;fillColor=#647687;fontColor=#ffffff;strokeColor=#314354;" vertex="1" parent="1">
          <mxGeometry x="13370" y="1440" width="260" height="78" as="geometry" />
        </mxCell>
        <mxCell id="DptJ9fzBije2jsMREySw-112" value="Análisis académicos y sociales" style="whiteSpace=wrap;strokeWidth=2;fillColor=#647687;fontColor=#ffffff;strokeColor=#314354;" vertex="1" parent="1">
          <mxGeometry x="13730" y="1580" width="260" height="78" as="geometry" />
        </mxCell>
        <mxCell id="DptJ9fzBije2jsMREySw-113" value="Representación y género" style="whiteSpace=wrap;strokeWidth=2;fillColor=#6a00ff;fontColor=#ffffff;strokeColor=#3700CC;" vertex="1" parent="1">
          <mxGeometry x="10969" y="1090" width="236" height="54" as="geometry" />
        </mxCell>
        <mxCell id="DptJ9fzBije2jsMREySw-114" value="Acoso por parte de una mujer" style="whiteSpace=wrap;strokeWidth=2;fillColor=#6a00ff;fontColor=#ffffff;strokeColor=#3700CC;" vertex="1" parent="1">
          <mxGeometry x="10273" y="1720" width="260" height="78" as="geometry" />
        </mxCell>
        <mxCell id="DptJ9fzBije2jsMREySw-115" value="Complejidad de la figura femenina" style="whiteSpace=wrap;strokeWidth=2;fillColor=#a0522d;fontColor=#ffffff;strokeColor=#6D1F00;" vertex="1" parent="1">
          <mxGeometry x="11530" y="1388" width="260" height="78" as="geometry" />
        </mxCell>
        <mxCell id="DptJ9fzBije2jsMREySw-116" value="Masculinidad frágil vs tradicional" style="whiteSpace=wrap;strokeWidth=2;fillColor=#0050ef;strokeColor=#001DBC;fontColor=#ffffff;" vertex="1" parent="1">
          <mxGeometry x="9490" y="1320" width="260" height="78" as="geometry" />
        </mxCell>
        <mxCell id="DptJ9fzBije2jsMREySw-117" value="Feminismo y contradicciones" style="whiteSpace=wrap;strokeWidth=2;fillColor=#a0522d;fontColor=#ffffff;strokeColor=#6D1F00;" vertex="1" parent="1">
          <mxGeometry x="11920" y="1322" width="260" height="78" as="geometry" />
        </mxCell>
        <mxCell id="DptJ9fzBije2jsMREySw-118" value="Voces masculinas y su escucha" style="whiteSpace=wrap;strokeWidth=2;fillColor=#a0522d;fontColor=#ffffff;strokeColor=#6D1F00;" vertex="1" parent="1">
          <mxGeometry x="12065" y="1840" width="260" height="78" as="geometry" />
        </mxCell>
        <mxCell id="DptJ9fzBije2jsMREySw-119" value="" style="curved=1;startArrow=none;endArrow=block;exitX=0;exitY=0.52;entryX=0.5;entryY=0;rounded=0;fillColor=#a0522d;strokeColor=#6D1F00;" edge="1" parent="1" source="DptJ9fzBije2jsMREySw-76" target="DptJ9fzBije2jsMREySw-77">
          <mxGeometry relative="1" as="geometry">
            <Array as="points">
              <mxPoint x="6710" y="1119" />
            </Array>
          </mxGeometry>
        </mxCell>
        <mxCell id="DptJ9fzBije2jsMREySw-120" value="" style="curved=1;startArrow=none;endArrow=block;exitX=0;exitY=0.72;entryX=0.5;entryY=0;rounded=0;fillColor=#a0522d;strokeColor=#6D1F00;" edge="1" parent="1" source="DptJ9fzBije2jsMREySw-77" target="DptJ9fzBije2jsMREySw-78">
          <mxGeometry relative="1" as="geometry">
            <Array as="points">
              <mxPoint x="6090" y="1247" />
            </Array>
          </mxGeometry>
        </mxCell>
        <mxCell id="DptJ9fzBije2jsMREySw-121" value="" style="curved=1;startArrow=none;endArrow=block;exitX=0;exitY=0.95;entryX=0.5;entryY=0;rounded=0;fillColor=#e51400;strokeColor=#B20000;" edge="1" parent="1" source="DptJ9fzBije2jsMREySw-77" target="DptJ9fzBije2jsMREySw-79">
          <mxGeometry relative="1" as="geometry">
            <Array as="points">
              <mxPoint x="6400" y="1247" />
            </Array>
          </mxGeometry>
        </mxCell>
        <mxCell id="DptJ9fzBije2jsMREySw-122" value="" style="curved=1;startArrow=none;endArrow=block;exitX=0.5;exitY=1;entryX=0.5;entryY=0;rounded=0;fillColor=#e51400;strokeColor=#B20000;" edge="1" parent="1" source="DptJ9fzBije2jsMREySw-77" target="DptJ9fzBije2jsMREySw-80">
          <mxGeometry relative="1" as="geometry">
            <Array as="points" />
          </mxGeometry>
        </mxCell>
        <mxCell id="DptJ9fzBije2jsMREySw-123" value="" style="curved=1;startArrow=none;endArrow=block;exitX=1;exitY=0.95;entryX=0.5;entryY=0;rounded=0;fillColor=#e51400;strokeColor=#B20000;" edge="1" parent="1" source="DptJ9fzBije2jsMREySw-77" target="DptJ9fzBije2jsMREySw-81">
          <mxGeometry relative="1" as="geometry">
            <Array as="points">
              <mxPoint x="7020" y="1247" />
            </Array>
          </mxGeometry>
        </mxCell>
        <mxCell id="DptJ9fzBije2jsMREySw-124" value="" style="curved=1;startArrow=none;endArrow=block;exitX=1;exitY=0.73;entryX=0.5;entryY=0;rounded=0;fillColor=#e51400;strokeColor=#B20000;" edge="1" parent="1" source="DptJ9fzBije2jsMREySw-77" target="DptJ9fzBije2jsMREySw-82">
          <mxGeometry relative="1" as="geometry">
            <Array as="points">
              <mxPoint x="7303" y="1247" />
            </Array>
          </mxGeometry>
        </mxCell>
        <mxCell id="DptJ9fzBije2jsMREySw-125" value="" style="curved=1;startArrow=none;endArrow=block;exitX=0;exitY=0.54;entryX=0.5;entryY=0;rounded=0;fillColor=#a0522d;strokeColor=#6D1F00;" edge="1" parent="1" source="DptJ9fzBije2jsMREySw-76" target="DptJ9fzBije2jsMREySw-83">
          <mxGeometry relative="1" as="geometry">
            <Array as="points">
              <mxPoint x="8136" y="1119" />
            </Array>
          </mxGeometry>
        </mxCell>
        <mxCell id="DptJ9fzBije2jsMREySw-126" value="" style="curved=1;startArrow=none;endArrow=block;exitX=0;exitY=0.62;entryX=0.48;entryY=0;rounded=0;fillColor=#a0522d;strokeColor=#6D1F00;" edge="1" parent="1" source="DptJ9fzBije2jsMREySw-83" target="DptJ9fzBije2jsMREySw-84">
          <mxGeometry relative="1" as="geometry">
            <Array as="points">
              <mxPoint x="7000" y="1375" />
            </Array>
          </mxGeometry>
        </mxCell>
        <mxCell id="DptJ9fzBije2jsMREySw-127" value="" style="curved=1;startArrow=none;endArrow=block;exitX=0;exitY=0.66;entryX=0.04;entryY=0;rounded=0;fillColor=#a0522d;strokeColor=#6D1F00;" edge="1" parent="1" source="DptJ9fzBije2jsMREySw-83" target="DptJ9fzBije2jsMREySw-85">
          <mxGeometry relative="1" as="geometry">
            <Array as="points">
              <mxPoint x="7303" y="1375" />
            </Array>
          </mxGeometry>
        </mxCell>
        <mxCell id="DptJ9fzBije2jsMREySw-128" value="" style="curved=1;startArrow=none;endArrow=block;exitX=0.5;exitY=1;entryX=0.5;entryY=0;rounded=0;fillColor=#0050ef;strokeColor=#001DBC;" edge="1" parent="1" source="DptJ9fzBije2jsMREySw-83" target="DptJ9fzBije2jsMREySw-86">
          <mxGeometry relative="1" as="geometry">
            <Array as="points" />
          </mxGeometry>
        </mxCell>
        <mxCell id="DptJ9fzBije2jsMREySw-129" value="" style="curved=1;startArrow=none;endArrow=block;exitX=0.79;exitY=1;entryX=0.18;entryY=0;rounded=0;fillColor=#0050ef;strokeColor=#001DBC;" edge="1" parent="1" source="DptJ9fzBije2jsMREySw-83" target="DptJ9fzBije2jsMREySw-87">
          <mxGeometry relative="1" as="geometry">
            <Array as="points">
              <mxPoint x="8289" y="1375" />
            </Array>
          </mxGeometry>
        </mxCell>
        <mxCell id="DptJ9fzBije2jsMREySw-130" value="" style="curved=1;startArrow=none;endArrow=block;exitX=1;exitY=0.65;entryX=0;entryY=0.31;rounded=0;fillColor=#0050ef;strokeColor=#001DBC;" edge="1" parent="1" source="DptJ9fzBije2jsMREySw-83" target="DptJ9fzBije2jsMREySw-88">
          <mxGeometry relative="1" as="geometry">
            <Array as="points">
              <mxPoint x="9018" y="1375" />
            </Array>
          </mxGeometry>
        </mxCell>
        <mxCell id="DptJ9fzBije2jsMREySw-131" value="" style="curved=1;startArrow=none;endArrow=block;exitX=0.94;exitY=1;entryX=0.5;entryY=0;rounded=0;fillColor=#a0522d;strokeColor=#6D1F00;" edge="1" parent="1" source="DptJ9fzBije2jsMREySw-76" target="DptJ9fzBije2jsMREySw-89">
          <mxGeometry relative="1" as="geometry">
            <Array as="points">
              <mxPoint x="10363" y="1119" />
            </Array>
          </mxGeometry>
        </mxCell>
        <mxCell id="DptJ9fzBije2jsMREySw-132" value="" style="curved=1;startArrow=none;endArrow=block;exitX=0;exitY=0.54;entryX=0.5;entryY=0;rounded=0;fillColor=#a0522d;strokeColor=#6D1F00;" edge="1" parent="1" source="DptJ9fzBije2jsMREySw-89" target="DptJ9fzBije2jsMREySw-90">
          <mxGeometry relative="1" as="geometry">
            <Array as="points">
              <mxPoint x="7870" y="1247" />
            </Array>
          </mxGeometry>
        </mxCell>
        <mxCell id="DptJ9fzBije2jsMREySw-133" value="" style="curved=1;startArrow=none;endArrow=block;exitX=0.76;exitY=1;entryX=0.5;entryY=0;rounded=0;fillColor=#a0522d;strokeColor=#6D1F00;" edge="1" parent="1" source="DptJ9fzBije2jsMREySw-89" target="DptJ9fzBije2jsMREySw-91">
          <mxGeometry relative="1" as="geometry">
            <Array as="points">
              <mxPoint x="10473" y="1247" />
            </Array>
          </mxGeometry>
        </mxCell>
        <mxCell id="DptJ9fzBije2jsMREySw-134" value="" style="curved=1;startArrow=none;endArrow=block;exitX=1;exitY=0.6;entryX=0.5;entryY=0;rounded=0;fillColor=#a0522d;strokeColor=#6D1F00;" edge="1" parent="1" source="DptJ9fzBije2jsMREySw-89" target="DptJ9fzBije2jsMREySw-92">
          <mxGeometry relative="1" as="geometry">
            <Array as="points">
              <mxPoint x="11392" y="1247" />
            </Array>
          </mxGeometry>
        </mxCell>
        <mxCell id="DptJ9fzBije2jsMREySw-135" value="" style="curved=1;startArrow=none;endArrow=block;exitX=0;exitY=0.57;entryX=0.5;entryY=0;rounded=0;fillColor=#008a00;strokeColor=#005700;" edge="1" parent="1" source="DptJ9fzBije2jsMREySw-89" target="DptJ9fzBije2jsMREySw-93">
          <mxGeometry relative="1" as="geometry">
            <Array as="points">
              <mxPoint x="8745" y="1247" />
            </Array>
          </mxGeometry>
        </mxCell>
        <mxCell id="DptJ9fzBije2jsMREySw-136" value="" style="curved=1;startArrow=none;endArrow=block;exitX=0;exitY=0.58;entryX=0.5;entryY=0;rounded=0;fillColor=#60a917;strokeColor=#2D7600;" edge="1" parent="1" source="DptJ9fzBije2jsMREySw-89" target="DptJ9fzBije2jsMREySw-94">
          <mxGeometry relative="1" as="geometry">
            <Array as="points">
              <mxPoint x="9048" y="1247" />
            </Array>
          </mxGeometry>
        </mxCell>
        <mxCell id="DptJ9fzBije2jsMREySw-137" value="" style="curved=1;startArrow=none;endArrow=block;exitX=0;exitY=0.59;entryX=0.5;entryY=0;rounded=0;fillColor=#0050ef;strokeColor=#001DBC;" edge="1" parent="1" source="DptJ9fzBije2jsMREySw-76" target="DptJ9fzBije2jsMREySw-95">
          <mxGeometry relative="1" as="geometry">
            <Array as="points">
              <mxPoint x="9314" y="1119" />
            </Array>
          </mxGeometry>
        </mxCell>
        <mxCell id="DptJ9fzBije2jsMREySw-138" value="" style="curved=1;startArrow=none;endArrow=block;exitX=0.52;exitY=1;entryX=0.5;entryY=0;rounded=0;fillColor=#a0522d;strokeColor=#6D1F00;" edge="1" parent="1" source="DptJ9fzBije2jsMREySw-95" target="DptJ9fzBije2jsMREySw-96">
          <mxGeometry relative="1" as="geometry">
            <Array as="points">
              <mxPoint x="9321" y="1247" />
            </Array>
          </mxGeometry>
        </mxCell>
        <mxCell id="DptJ9fzBije2jsMREySw-139" value="" style="curved=1;startArrow=none;endArrow=block;exitX=0;exitY=0.64;entryX=0.5;entryY=0;rounded=0;fillColor=#a0522d;strokeColor=#6D1F00;" edge="1" parent="1" source="DptJ9fzBije2jsMREySw-95" target="DptJ9fzBije2jsMREySw-97">
          <mxGeometry relative="1" as="geometry">
            <Array as="points">
              <mxPoint x="8435" y="1247" />
            </Array>
          </mxGeometry>
        </mxCell>
        <mxCell id="DptJ9fzBije2jsMREySw-140" value="" style="curved=1;startArrow=none;endArrow=block;exitX=1;exitY=0.72;entryX=0.5;entryY=0;rounded=0;fillColor=#a0522d;strokeColor=#6D1F00;" edge="1" parent="1" source="DptJ9fzBije2jsMREySw-95" target="DptJ9fzBije2jsMREySw-98">
          <mxGeometry relative="1" as="geometry">
            <Array as="points">
              <mxPoint x="9873" y="1247" />
            </Array>
          </mxGeometry>
        </mxCell>
        <mxCell id="DptJ9fzBije2jsMREySw-141" value="" style="curved=1;startArrow=none;endArrow=block;exitX=1;exitY=0.65;entryX=0.5;entryY=0;rounded=0;fillColor=#a0522d;strokeColor=#6D1F00;" edge="1" parent="1" source="DptJ9fzBije2jsMREySw-95" target="DptJ9fzBije2jsMREySw-99">
          <mxGeometry relative="1" as="geometry">
            <Array as="points">
              <mxPoint x="10144" y="1247" />
            </Array>
          </mxGeometry>
        </mxCell>
        <mxCell id="DptJ9fzBije2jsMREySw-142" value="" style="curved=1;startArrow=none;endArrow=block;exitX=0;exitY=0.57;entryX=0.5;entryY=0;rounded=0;fillColor=#a0522d;strokeColor=#6D1F00;" edge="1" parent="1" source="DptJ9fzBije2jsMREySw-95" target="DptJ9fzBije2jsMREySw-100">
          <mxGeometry relative="1" as="geometry">
            <Array as="points">
              <mxPoint x="7586" y="1247" />
            </Array>
          </mxGeometry>
        </mxCell>
        <mxCell id="DptJ9fzBije2jsMREySw-143" value="" style="curved=1;startArrow=none;endArrow=block;exitX=1;exitY=0.55;entryX=0.5;entryY=0;rounded=0;fillColor=#a0522d;strokeColor=#6D1F00;" edge="1" parent="1" source="DptJ9fzBije2jsMREySw-76" target="DptJ9fzBije2jsMREySw-101">
          <mxGeometry relative="1" as="geometry">
            <Array as="points">
              <mxPoint x="11939" y="1119" />
            </Array>
          </mxGeometry>
        </mxCell>
        <mxCell id="DptJ9fzBije2jsMREySw-144" value="" style="curved=1;startArrow=none;endArrow=block;exitX=0;exitY=0.6;entryX=0;entryY=0.33;rounded=0;fillColor=#a0522d;strokeColor=#6D1F00;" edge="1" parent="1" source="DptJ9fzBije2jsMREySw-101" target="DptJ9fzBije2jsMREySw-102">
          <mxGeometry relative="1" as="geometry">
            <Array as="points">
              <mxPoint x="10638" y="1247" />
              <mxPoint x="10638" y="1375" />
            </Array>
          </mxGeometry>
        </mxCell>
        <mxCell id="DptJ9fzBije2jsMREySw-145" value="" style="curved=1;startArrow=none;endArrow=block;exitX=1;exitY=0.82;entryX=0.5;entryY=0;rounded=0;fillColor=#a0522d;strokeColor=#6D1F00;" edge="1" parent="1" source="DptJ9fzBije2jsMREySw-101" target="DptJ9fzBije2jsMREySw-103">
          <mxGeometry relative="1" as="geometry">
            <Array as="points">
              <mxPoint x="12342" y="1247" />
            </Array>
          </mxGeometry>
        </mxCell>
        <mxCell id="DptJ9fzBije2jsMREySw-146" value="" style="curved=1;startArrow=none;endArrow=block;exitX=1;exitY=0.68;entryX=0.5;entryY=0;rounded=0;fillColor=#a0522d;strokeColor=#6D1F00;" edge="1" parent="1" source="DptJ9fzBije2jsMREySw-101" target="DptJ9fzBije2jsMREySw-104">
          <mxGeometry relative="1" as="geometry">
            <Array as="points">
              <mxPoint x="12652" y="1247" />
            </Array>
          </mxGeometry>
        </mxCell>
        <mxCell id="DptJ9fzBije2jsMREySw-147" value="" style="curved=1;startArrow=none;endArrow=block;exitX=0;exitY=0.61;entryX=0.5;entryY=0;rounded=0;fillColor=#a0522d;strokeColor=#6D1F00;" edge="1" parent="1" source="DptJ9fzBije2jsMREySw-101" target="DptJ9fzBije2jsMREySw-105">
          <mxGeometry relative="1" as="geometry">
            <Array as="points">
              <mxPoint x="10803" y="1247" />
            </Array>
          </mxGeometry>
        </mxCell>
        <mxCell id="DptJ9fzBije2jsMREySw-148" value="" style="curved=1;startArrow=none;endArrow=block;exitX=0;exitY=0.65;entryX=0.5;entryY=0;rounded=0;fillColor=#a0522d;strokeColor=#6D1F00;" edge="1" parent="1" source="DptJ9fzBije2jsMREySw-101" target="DptJ9fzBije2jsMREySw-106">
          <mxGeometry relative="1" as="geometry">
            <Array as="points">
              <mxPoint x="11097" y="1247" />
            </Array>
          </mxGeometry>
        </mxCell>
        <mxCell id="DptJ9fzBije2jsMREySw-149" value="" style="curved=1;startArrow=none;endArrow=block;exitX=1;exitY=0.52;entryX=0.5;entryY=0;rounded=0;fillColor=#a0522d;strokeColor=#6D1F00;" edge="1" parent="1" source="DptJ9fzBije2jsMREySw-76" target="DptJ9fzBije2jsMREySw-107">
          <mxGeometry relative="1" as="geometry">
            <Array as="points">
              <mxPoint x="13379" y="1119" />
            </Array>
          </mxGeometry>
        </mxCell>
        <mxCell id="DptJ9fzBije2jsMREySw-150" value="" style="curved=1;startArrow=none;endArrow=block;exitX=0;exitY=0.67;entryX=0.5;entryY=0;rounded=0;fillColor=#a0522d;strokeColor=#6D1F00;" edge="1" parent="1" source="DptJ9fzBije2jsMREySw-107" target="DptJ9fzBije2jsMREySw-108">
          <mxGeometry relative="1" as="geometry">
            <Array as="points">
              <mxPoint x="12813" y="1375" />
            </Array>
          </mxGeometry>
        </mxCell>
        <mxCell id="DptJ9fzBije2jsMREySw-151" value="" style="curved=1;startArrow=none;endArrow=block;exitX=0;exitY=0.86;entryX=0.5;entryY=0;rounded=0;fillColor=#a0522d;strokeColor=#6D1F00;" edge="1" parent="1" source="DptJ9fzBije2jsMREySw-107" target="DptJ9fzBije2jsMREySw-109">
          <mxGeometry relative="1" as="geometry">
            <Array as="points">
              <mxPoint x="13116" y="1375" />
            </Array>
          </mxGeometry>
        </mxCell>
        <mxCell id="DptJ9fzBije2jsMREySw-152" value="" style="curved=1;startArrow=none;endArrow=block;exitX=0;exitY=0.59;entryX=0.16;entryY=0;rounded=0;fillColor=#a0522d;strokeColor=#6D1F00;" edge="1" parent="1" source="DptJ9fzBije2jsMREySw-107" target="DptJ9fzBije2jsMREySw-110">
          <mxGeometry relative="1" as="geometry">
            <Array as="points">
              <mxPoint x="12365" y="1375" />
            </Array>
          </mxGeometry>
        </mxCell>
        <mxCell id="DptJ9fzBije2jsMREySw-153" value="" style="curved=1;startArrow=none;endArrow=block;exitX=0.62;exitY=1;entryX=0.5;entryY=0;rounded=0;fillColor=#a0522d;strokeColor=#6D1F00;" edge="1" parent="1" source="DptJ9fzBije2jsMREySw-107" target="DptJ9fzBije2jsMREySw-111">
          <mxGeometry relative="1" as="geometry">
            <Array as="points">
              <mxPoint x="13426" y="1375" />
            </Array>
          </mxGeometry>
        </mxCell>
        <mxCell id="DptJ9fzBije2jsMREySw-154" value="" style="curved=1;startArrow=none;endArrow=block;exitX=1;exitY=0.77;entryX=0.5;entryY=0;rounded=0;fillColor=#a0522d;strokeColor=#6D1F00;" edge="1" parent="1" source="DptJ9fzBije2jsMREySw-107" target="DptJ9fzBije2jsMREySw-112">
          <mxGeometry relative="1" as="geometry">
            <Array as="points">
              <mxPoint x="13736" y="1375" />
            </Array>
          </mxGeometry>
        </mxCell>
        <mxCell id="DptJ9fzBije2jsMREySw-155" value="" style="curved=1;startArrow=none;endArrow=block;exitX=1;exitY=0.59;entryX=0.5;entryY=0;rounded=0;fillColor=#a0522d;strokeColor=#6D1F00;" edge="1" parent="1" source="DptJ9fzBije2jsMREySw-76" target="DptJ9fzBije2jsMREySw-113">
          <mxGeometry relative="1" as="geometry">
            <Array as="points">
              <mxPoint x="11087" y="1119" />
            </Array>
          </mxGeometry>
        </mxCell>
        <mxCell id="DptJ9fzBije2jsMREySw-156" value="" style="curved=1;startArrow=none;endArrow=block;exitX=0;exitY=0.68;entryX=0.31;entryY=0;rounded=0;fillColor=#a0522d;strokeColor=#6D1F00;" edge="1" parent="1" source="DptJ9fzBije2jsMREySw-113" target="DptJ9fzBije2jsMREySw-114">
          <mxGeometry relative="1" as="geometry">
            <Array as="points">
              <mxPoint x="10308" y="1247" />
              <mxPoint x="10308" y="1375" />
            </Array>
          </mxGeometry>
        </mxCell>
        <mxCell id="DptJ9fzBije2jsMREySw-157" value="" style="curved=1;startArrow=none;endArrow=block;exitX=1;exitY=0.73;entryX=0.5;entryY=0;rounded=0;fillColor=#a0522d;strokeColor=#6D1F00;" edge="1" parent="1" source="DptJ9fzBije2jsMREySw-113" target="DptJ9fzBije2jsMREySw-115">
          <mxGeometry relative="1" as="geometry">
            <Array as="points">
              <mxPoint x="11702" y="1247" />
            </Array>
          </mxGeometry>
        </mxCell>
        <mxCell id="DptJ9fzBije2jsMREySw-158" value="" style="curved=1;startArrow=none;endArrow=block;exitX=0;exitY=0.59;entryX=0.5;entryY=0;rounded=0;fillColor=#a0522d;strokeColor=#6D1F00;" edge="1" parent="1" source="DptJ9fzBije2jsMREySw-113" target="DptJ9fzBije2jsMREySw-116">
          <mxGeometry relative="1" as="geometry">
            <Array as="points">
              <mxPoint x="9602" y="1247" />
            </Array>
          </mxGeometry>
        </mxCell>
        <mxCell id="DptJ9fzBije2jsMREySw-159" value="" style="curved=1;startArrow=none;endArrow=block;exitX=1;exitY=0.65;entryX=0.5;entryY=0;rounded=0;fillColor=#a0522d;strokeColor=#6D1F00;" edge="1" parent="1" source="DptJ9fzBije2jsMREySw-113" target="DptJ9fzBije2jsMREySw-117">
          <mxGeometry relative="1" as="geometry">
            <Array as="points">
              <mxPoint x="12032" y="1247" />
            </Array>
          </mxGeometry>
        </mxCell>
        <mxCell id="DptJ9fzBije2jsMREySw-160" value="" style="curved=1;startArrow=none;endArrow=block;exitX=1;exitY=0.68;entryX=0;entryY=0.18;rounded=0;fillColor=#a0522d;strokeColor=#6D1F00;" edge="1" parent="1" source="DptJ9fzBije2jsMREySw-113" target="DptJ9fzBije2jsMREySw-118">
          <mxGeometry relative="1" as="geometry">
            <Array as="points">
              <mxPoint x="11867" y="1247" />
              <mxPoint x="11867" y="1375" />
            </Array>
          </mxGeometry>
        </mxCell>
        <mxCell id="DptJ9fzBije2jsMREySw-161" value="" style="curved=1;startArrow=none;endArrow=block;exitX=0.5;exitY=1;entryX=0.52;entryY=0;rounded=0;fillColor=#e51400;strokeColor=#B20000;" edge="1" parent="1" source="DptJ9fzBije2jsMREySw-81" target="DptJ9fzBije2jsMREySw-84">
          <mxGeometry relative="1" as="geometry">
            <Array as="points">
              <mxPoint x="7020" y="1375" />
            </Array>
          </mxGeometry>
        </mxCell>
        <mxCell id="DptJ9fzBije2jsMREySw-162" value="" style="curved=1;startArrow=none;endArrow=block;exitX=0.5;exitY=1;entryX=0.7;entryY=0;rounded=0;fillColor=#a0522d;strokeColor=#6D1F00;" edge="1" parent="1" source="DptJ9fzBije2jsMREySw-91" target="DptJ9fzBije2jsMREySw-114">
          <mxGeometry relative="1" as="geometry">
            <Array as="points">
              <mxPoint x="10473" y="1375" />
            </Array>
          </mxGeometry>
        </mxCell>
        <mxCell id="DptJ9fzBije2jsMREySw-163" value="" style="curved=1;startArrow=none;endArrow=block;exitX=0.5;exitY=1;entryX=0.52;entryY=0;rounded=0;fillColor=#0050ef;strokeColor=#001DBC;" edge="1" parent="1" source="DptJ9fzBije2jsMREySw-97" target="DptJ9fzBije2jsMREySw-87">
          <mxGeometry relative="1" as="geometry">
            <Array as="points">
              <mxPoint x="8435" y="1375" />
            </Array>
          </mxGeometry>
        </mxCell>
        <mxCell id="DptJ9fzBije2jsMREySw-164" value="" style="curved=1;startArrow=none;endArrow=block;exitX=0.5;exitY=1;entryX=0.83;entryY=0;rounded=0;fillColor=#a0522d;strokeColor=#6D1F00;" edge="1" parent="1" source="DptJ9fzBije2jsMREySw-103" target="DptJ9fzBije2jsMREySw-118">
          <mxGeometry relative="1" as="geometry">
            <Array as="points">
              <mxPoint x="12342" y="1375" />
            </Array>
          </mxGeometry>
        </mxCell>
        <mxCell id="DptJ9fzBije2jsMREySw-165" value="" style="curved=1;startArrow=none;endArrow=block;exitX=0.5;exitY=1;entryX=0.52;entryY=0;rounded=0;fillColor=#0050ef;strokeColor=#001DBC;" edge="1" parent="1" source="DptJ9fzBije2jsMREySw-116" target="DptJ9fzBije2jsMREySw-88">
          <mxGeometry relative="1" as="geometry">
            <Array as="points">
              <mxPoint x="9602" y="1375" />
            </Array>
          </mxGeometry>
        </mxCell>
        <mxCell id="DptJ9fzBije2jsMREySw-166" value="" style="curved=1;startArrow=none;endArrow=block;exitX=0.5;exitY=1;entryX=0.83;entryY=0;rounded=0;fillColor=#a0522d;strokeColor=#6D1F00;" edge="1" parent="1" source="DptJ9fzBije2jsMREySw-104" target="DptJ9fzBije2jsMREySw-110">
          <mxGeometry relative="1" as="geometry">
            <Array as="points">
              <mxPoint x="12652" y="1375" />
            </Array>
          </mxGeometry>
        </mxCell>
        <mxCell id="DptJ9fzBije2jsMREySw-167" value="" style="curved=1;startArrow=none;endArrow=block;exitX=0.5;exitY=1;entryX=0.83;entryY=0;rounded=0;fillColor=#a0522d;strokeColor=#6D1F00;" edge="1" parent="1" source="DptJ9fzBije2jsMREySw-92" target="DptJ9fzBije2jsMREySw-102">
          <mxGeometry relative="1" as="geometry">
            <Array as="points">
              <mxPoint x="11392" y="1375" />
            </Array>
          </mxGeometry>
        </mxCell>
        <mxCell id="DptJ9fzBije2jsMREySw-168" value="" style="curved=1;startArrow=none;endArrow=block;exitX=0.5;exitY=1;entryX=0.52;entryY=0;rounded=0;fillColor=#0050ef;strokeColor=#001DBC;" edge="1" parent="1" source="DptJ9fzBije2jsMREySw-100" target="DptJ9fzBije2jsMREySw-85">
          <mxGeometry relative="1" as="geometry">
            <Array as="points">
              <mxPoint x="7586" y="1375" />
            </Array>
          </mxGeometry>
        </mxCell>
      </root>
    </mxGraphModel>
  </diagram>
</mxfile>
